<svg width="48" height="48" viewBox="0 0 48 48" fill="none" xmlns="http://www.w3.org/2000/svg">
<path fill-rule="evenodd" clip-rule="evenodd" d="M24 42C24.1543 42 24.3081 41.9981 24.4614 41.9942C25.6291 44.2374 27.4318 46.0973 29.6312 47.3357C27.825 47.77 25.9394 48 24 48C10.7452 48 0 37.2548 0 24C0 10.7452 10.7452 0 24 0C37.2548 0 48 10.7452 48 24C48 25.9394 47.77 27.825 47.3357 29.6312C46.0973 27.4318 44.2374 25.6291 41.9942 24.4614C41.9981 24.3081 42 24.1543 42 24C42 14.0589 33.9411 6 24 6C14.0589 6 6 14.0589 6 24C6 33.9411 14.0589 42 24 42ZM36 26C30.4772 26 26 30.4772 26 36C26 41.5228 30.4772 46 36 46H46V36C46 30.4772 41.5228 26 36 26Z" fill="white"/>
</svg>
