<svg width="48" height="48" viewBox="0 0 48 48" fill="none" xmlns="http://www.w3.org/2000/svg">
<path fill-rule="evenodd" clip-rule="evenodd" d="M24 40C24.2271 40 24.4531 39.9953 24.6779 39.9859C25.7688 43.0848 28.0959 45.601 31.0673 46.9425C28.833 47.63 26.4597 48 24 48C10.7452 48 0 37.2548 0 24C0 10.7452 10.7452 0 24 0C37.2548 0 48 10.7452 48 24C48 26.4597 47.63 28.833 46.9425 31.0673C45.601 28.0959 43.0848 25.7688 39.9859 24.6779C39.9953 24.4531 40 24.2271 40 24C40 15.1634 32.8366 8 24 8C15.1634 8 8 15.1634 8 24C8 32.8366 15.1634 40 24 40ZM36 26C30.4772 26 26 30.4772 26 36C26 41.5228 30.4772 46 36 46H46V36C46 30.4772 41.5228 26 36 26Z" fill="#202427"/>
</svg>
