<svg width="116" height="79" viewBox="0 0 116 79" fill="none" xmlns="http://www.w3.org/2000/svg">
<path fill-rule="evenodd" clip-rule="evenodd" d="M48 0H77C90.2548 0 101 10.7452 101 24V45.7786L94.2356 47.4801C93.4296 47.6828 92.9313 48.4901 93.1114 49.3014L93.4161 50.6749L116 44.5848L116 48.5L103.817 54.9323C106.524 62.4478 108 70.5516 108 79H92V58C92 46.9543 83.0457 38 72 38C60.9543 38 52 46.9543 52 58V79H40V67C40 60.3726 34.6274 55 28 55C21.3726 55 16 60.3726 16 67V79H0V41C0 22.7746 14.7746 8 33 8H37C40.7413 8 44.415 8.28938 48 8.84697V0ZM72 34C76.4183 34 80 30.4183 80 26C80 21.5817 76.4183 18 72 18C67.5817 18 64 21.5817 64 26C64 30.4183 67.5817 34 72 34Z" fill="black"/>
</svg>
