<svg width="50" height="50" viewBox="0 0 50 50" fill="none" xmlns="http://www.w3.org/2000/svg">
<path fill-rule="evenodd" clip-rule="evenodd" d="M24 8C31.6006 8 37.9634 13.2997 39.5946 20.4054C42.8872 21.1612 45.7919 22.933 47.9614 25.3731C47.987 24.9187 48 24.4609 48 24C48 10.7452 37.2548 0 24 0C10.7452 0 0 10.7452 0 24C0 37.2548 10.7452 48 24 48C24.4609 48 24.9187 47.987 25.3731 47.9614C22.933 45.7919 21.1612 42.8872 20.4054 39.5946C13.2997 37.9634 8 31.6006 8 24C8 15.1634 15.1634 8 24 8ZM36 22C28.268 22 22 28.268 22 36C22 43.732 28.268 50 36 50H50V36C50 28.268 43.732 22 36 22Z" fill="white"/>
</svg>
