<svg width="48" height="48" viewBox="0 0 48 48" fill="none" xmlns="http://www.w3.org/2000/svg">
<path fill-rule="evenodd" clip-rule="evenodd" d="M24 42C24.2714 42 24.5414 41.994 24.8099 41.9821C26.1811 44.2386 28.2467 46.0266 30.7101 47.0494C28.5807 47.6682 26.3291 48 24 48C10.7452 48 0 37.2548 0 24C0 10.7452 10.7452 0 24 0C37.2548 0 48 10.7452 48 24C48 26.3291 47.6682 28.5807 47.0494 30.7101C46.0266 28.2467 44.2386 26.1811 41.9821 24.8099C41.994 24.5414 42 24.2714 42 24C42 14.0589 33.9411 6 24 6C14.0589 6 6 14.0589 6 24C6 33.9411 14.0589 42 24 42ZM36 26C30.4772 26 26 30.4772 26 36C26 41.5228 30.4772 46 36 46H46V36C46 30.4772 41.5228 26 36 26Z" fill="#202427"/>
</svg>
