<svg width="88" height="88" viewBox="0 0 88 88" fill="none" xmlns="http://www.w3.org/2000/svg">
<path d="M44 11C61.3021 11 75.4941 24.3155 76.8877 41.2581C81.2234 43.4103 84.888 46.7112 87.4835 50.7627C87.8236 48.5582 88 46.2997 88 44C88 19.6995 68.3005 0 44 0C19.6995 0 0 19.6995 0 44C0 68.3005 19.6995 88 44 88C46.2997 88 48.5582 87.8236 50.7627 87.4835C46.7112 84.888 43.4103 81.2234 41.2581 76.8877C24.3155 75.4941 11 61.3021 11 44C11 25.7746 25.7746 11 44 11Z" fill="#333"/>
<path d="M66 47.6667C55.8748 47.6667 47.6667 55.8748 47.6667 66C47.6667 76.1252 55.8748 84.3333 66 84.3333H84.3333V66C84.3333 55.8748 76.1252 47.6667 66 47.6667Z" fill="#333"/>
</svg>
