<svg width="371" height="371" viewBox="0 0 371 371" fill="none" xmlns="http://www.w3.org/2000/svg">
<path d="M370.358 185.471C370.358 83.3599 287.581 0.582953 185.471 0.582954C83.36 0.582976 0.583001 83.36 0.583008 185.471C0.583018 287.581 83.36 370.358 185.471 370.358L306.037 370.358L249.257 295.902C240.478 299.213 230.963 301.025 221.025 301.025L180.73 301.025C136.548 301.025 100.73 265.208 100.73 221.025L100.73 111.631L156.658 167.558C149.807 179.502 151.844 195.425 162.53 206.112C175.198 218.779 195.222 219.293 207.256 207.259C219.29 195.225 218.776 175.201 206.109 162.534C195.421 151.846 179.496 149.81 167.552 156.663L111.619 100.73L221.025 100.73C265.208 100.73 301.025 136.548 301.025 180.73L301.025 221.025C301.025 230.962 299.214 240.475 295.903 249.253L370.358 306.032L370.358 185.471Z" fill="#333333"/>
</svg>
