<?xml version="1.0" standalone="no"?>
<!DOCTYPE svg PUBLIC "-//W3C//DTD SVG 20010904//EN"
 "http://www.w3.org/TR/2001/REC-SVG-20010904/DTD/svg10.dtd">
<svg version="1.0" xmlns="http://www.w3.org/2000/svg"
 width="565.000000pt" height="565.000000pt" viewBox="0 0 565.000000 565.000000"
 preserveAspectRatio="xMidYMid meet">
<metadata>
Created by potrace 1.11, written by Peter Selinger 2001-2013
</metadata>
<g transform="translate(0.000000,565.000000) scale(0.100000,-0.100000)"
fill="#000000" stroke="none">
<path d="M0 2825 l0 -2825 2825 0 2825 0 0 2825 0 2825 -2825 0 -2825 0 0
-2825z m2695 2574 c1058 -91 1904 -904 2040 -1960 l6 -46 52 -6 c74 -8 153
-40 220 -91 195 -146 252 -397 141 -619 -20 -40 -111 -137 -387 -414 l-361
-363 360 -362 c257 -259 368 -378 387 -414 103 -196 63 -432 -99 -583 -153
-144 -362 -173 -554 -77 -43 22 -131 104 -417 389 l-363 362 -362 -362 c-269
-267 -376 -367 -413 -386 -221 -110 -474 -57 -617 130 -60 80 -89 158 -96 256
-5 87 6 78 -117 97 -329 51 -717 225 -999 448 -339 268 -609 654 -741 1063
-57 177 -105 419 -105 525 0 35 4 29 30 -48 107 -316 321 -567 605 -710 485
-245 1200 -191 1623 121 l33 24 -124 126 c-68 69 -133 142 -144 161 -64 107
-82 268 -43 394 41 133 156 255 287 307 48 19 77 23 173 23 129 1 187 -16 279
-79 48 -34 49 -34 56 -12 13 37 18 1473 6 1572 -32 260 -238 445 -496 445
-192 0 -361 -103 -447 -274 -57 -112 -58 -125 -58 -906 0 -788 -1 -798 -61
-911 -40 -74 -103 -131 -178 -161 -47 -19 -75 -22 -181 -22 -107 0 -133 3
-182 23 -71 28 -134 88 -171 165 -55 112 -57 142 -57 924 0 572 -3 729 -14
775 l-14 59 42 30 c22 16 78 52 124 79 404 240 875 348 1337 308z"/>
</g>
</svg>
