<?xml version="1.0" standalone="no"?>
<!DOCTYPE svg PUBLIC "-//W3C//DTD SVG 20010904//EN"
 "http://www.w3.org/TR/2001/REC-SVG-20010904/DTD/svg10.dtd">
<svg version="1.0" xmlns="http://www.w3.org/2000/svg"
 width="360.000000pt" height="360.000000pt" viewBox="0 0 360.000000 360.000000"
 preserveAspectRatio="xMidYMid meet">
<metadata>
Created by potrace 1.14, written by Peter Selinger 2001-2017
</metadata>
<g transform="translate(0.000000,360.000000) scale(0.100000,-0.100000)"
fill="#000000" stroke="none">
<path d="M995 3593 c-16 -3 -34 -8 -40 -12 -5 -4 -22 -6 -37 -5 -16 2 -28 -1
-28 -6 0 -5 -7 -6 -17 -3 -9 4 -14 2 -10 -3 3 -5 -7 -9 -21 -8 -15 0 -41 -5
-58 -12 -17 -7 -34 -10 -38 -7 -3 4 -6 -2 -7 -13 0 -10 -3 -14 -5 -8 -7 16
-84 -14 -84 -33 0 -7 -5 -13 -11 -13 -5 0 -7 5 -3 11 9 14 -46 -14 -128 -67
-38 -24 -68 -48 -68 -54 0 -6 -4 -9 -9 -6 -12 8 -33 -19 -23 -29 4 -5 2 -5 -5
-2 -6 4 -36 -16 -69 -48 -32 -30 -55 -55 -52 -55 3 0 -8 -15 -24 -32 -59 -63
-171 -248 -151 -248 5 0 3 -4 -3 -8 -15 -10 -46 -91 -39 -103 4 -5 2 -9 -3 -9
-13 0 -36 -96 -26 -111 4 -8 3 -9 -4 -5 -8 5 -13 -4 -14 -26 -3 -55 -4 -63 -9
-73 -9 -17 -8 -346 1 -340 5 3 12 1 15 -5 4 -6 1 -9 -7 -8 -11 2 -13 -86 -15
-485 -1 -347 2 -485 9 -481 7 5 8 2 2 -7 -5 -8 -9 -54 -10 -104 -1 -71 3 -93
15 -103 15 -11 15 -12 0 -7 -13 5 -15 -1 -12 -37 1 -24 5 -52 7 -63 3 -11 5
-25 5 -32 1 -7 9 -10 19 -7 16 5 16 5 -1 -6 -9 -6 -15 -15 -13 -19 5 -8 17
-58 18 -78 1 -7 5 -13 11 -13 5 0 7 -6 4 -12 -5 -17 13 -68 57 -159 54 -108
66 -129 77 -130 5 -1 14 -2 21 -3 6 0 13 -8 15 -16 3 -9 1 -11 -4 -5 -4 6 -14
11 -21 13 -10 2 -10 -2 0 -18 7 -10 14 -17 17 -15 2 3 11 -10 20 -28 9 -17 27
-37 41 -44 14 -7 20 -13 13 -13 -7 0 3 -16 21 -36 19 -20 38 -34 44 -30 5 3
16 -2 23 -12 13 -15 12 -16 -3 -3 -12 9 -18 10 -18 2 0 -6 4 -11 8 -11 5 0 18
-9 29 -19 34 -32 183 -133 183 -124 0 4 4 3 8 -4 4 -6 20 -15 36 -19 21 -5 27
-4 22 5 -4 6 -12 8 -18 5 -7 -5 -8 -2 -3 6 6 10 4 12 -8 7 -9 -3 -19 -2 -22 4
-4 5 -11 6 -17 3 -7 -4 -8 -2 -4 4 6 11 -6 16 -26 13 -8 -1 -12 15 -9 32 1 5
-9 5 -21 1 -19 -6 -18 -3 7 19 17 15 25 27 19 27 -6 0 -17 -6 -23 -14 -7 -8
-21 -14 -31 -13 -13 1 -16 5 -9 13 6 7 0 19 -20 35 -32 28 -57 69 -41 69 5 0
10 -6 10 -14 0 -24 26 -39 49 -26 14 7 21 7 21 0 0 -5 -7 -10 -15 -10 -20 0
-19 -14 2 -31 15 -12 16 -12 10 3 -4 12 -2 15 8 12 10 -4 12 2 9 28 -4 27 -2
30 6 15 6 -9 8 -22 5 -27 -3 -6 -2 -10 4 -10 5 0 12 6 14 13 4 9 6 9 6 -1 1
-7 4 -11 9 -9 4 3 13 -1 20 -9 15 -16 8 -18 -18 -4 -13 7 -24 4 -44 -11 -15
-12 -25 -24 -22 -27 3 -3 15 3 25 12 14 13 24 15 38 8 12 -7 25 -7 36 -1 13 8
19 6 23 -5 3 -8 14 -13 25 -11 11 2 23 -3 26 -11 3 -8 12 -13 20 -10 7 3 16 0
19 -8 3 -7 10 -13 17 -14 27 -2 46 -9 60 -20 8 -7 19 -12 23 -11 5 1 11 0 14
-1 12 -4 46 -11 60 -12 8 0 20 -4 25 -8 6 -4 18 -6 27 -5 11 2 15 -2 11 -13
-5 -11 -3 -13 8 -6 18 11 69 13 92 2 11 -6 17 -5 17 4 0 8 3 9 8 3 8 -12 22
-13 40 -1 7 4 18 4 25 -1 14 -11 97 -11 114 0 6 4 14 3 18 -3 3 -5 11 -10 16
-10 6 0 7 5 3 12 -5 7 -3 8 6 3 18 -11 51 -13 77 -3 12 4 25 3 27 -1 5 -7 73
-8 101 -1 20 5 35 0 35 -11 0 -8 -6 -7 -17 2 -11 9 -14 10 -9 2 8 -14 -10 -53
-25 -53 -6 0 -6 8 1 21 7 11 9 23 6 27 -3 3 -6 -1 -6 -9 0 -11 -2 -11 -10 1
-7 11 -10 11 -10 2 0 -7 -5 -10 -12 -6 -6 4 -17 -1 -24 -10 -11 -16 -13 -16
-19 5 -6 17 -9 19 -16 8 -5 -9 -9 -9 -9 -2 0 6 -14 -2 -31 -18 -18 -16 -35
-27 -38 -23 -3 3 7 16 22 28 l28 23 -38 -2 c-21 -1 -38 -3 -38 -4 0 -9 -35 -7
-35 2 0 7 -7 4 -14 -5 -15 -21 -27 -23 -23 -5 1 7 -8 12 -23 12 -16 -1 -24 -6
-23 -15 2 -9 -6 -21 -17 -28 -21 -13 -27 -3 -9 15 6 6 8 16 4 23 -5 8 -11 6
-22 -7 -8 -10 -12 -13 -9 -7 3 6 -1 11 -9 11 -8 0 -12 -3 -10 -7 2 -3 -7 -6
-20 -6 -13 0 -22 3 -20 6 2 3 -5 6 -15 6 -10 0 -16 -5 -13 -10 4 -5 1 -6 -8 0
-20 12 -40 14 -33 3 3 -5 0 -8 -8 -7 -7 2 -12 -2 -11 -8 1 -7 -7 -20 -17 -29
-14 -12 -20 -14 -20 -5 0 10 -4 9 -17 -1 -14 -12 -16 -12 -8 0 6 10 4 12 -5 6
-9 -6 -11 -4 -5 6 8 12 6 12 -9 0 -9 -8 -16 -10 -15 -5 4 16 -24 64 -34 57 -5
-3 -4 -9 4 -14 17 -10 8 -19 -27 -25 -18 -3 -24 -1 -16 4 10 7 10 11 -1 21
-15 11 -47 6 -47 -9 0 -10 53 -32 85 -34 14 0 25 -5 25 -10 0 -4 7 -6 15 -2 8
3 15 1 15 -4 0 -5 13 -7 30 -5 16 2 32 0 35 -4 2 -4 17 -7 32 -6 15 1 31 -3
35 -9 5 -7 8 -6 8 3 0 11 3 11 15 1 12 -10 13 -8 10 10 -6 32 -12 35 -32 19
-16 -13 -17 -12 -4 4 19 24 28 22 45 -10 12 -23 21 -27 59 -28 25 -1 45 3 44
8 -1 5 4 12 11 14 7 3 11 -1 10 -8 -2 -8 7 -14 24 -14 15 -1 25 2 22 6 -2 4 0
10 5 13 5 3 12 -1 15 -10 5 -13 9 -14 21 -4 8 7 15 8 15 3 0 -5 7 -10 14 -10
11 0 12 5 5 18 -12 24 -12 26 6 26 9 0 14 -6 11 -14 -4 -9 -1 -11 6 -7 7 5 9
2 6 -7 -5 -12 4 -15 42 -15 30 0 46 4 44 11 -3 6 5 11 16 11 13 0 19 -5 15
-13 -3 -9 4 -7 20 4 13 10 22 24 20 32 -4 9 0 11 11 7 8 -3 19 -6 22 -6 4 0 1
-4 -7 -9 -9 -6 -5 -8 14 -8 15 0 31 -7 36 -14 12 -20 11 -2 -1 22 -9 15 -6 24
15 45 15 14 24 28 22 31 -3 2 -11 -3 -20 -11 -13 -13 -17 -13 -33 0 -18 15
-18 15 4 11 12 -3 22 -1 22 3 0 5 8 7 18 5 9 -2 23 -4 30 -4 6 -1 12 -6 12
-12 0 -5 -4 -8 -9 -4 -5 3 -12 -4 -16 -15 -4 -11 -10 -18 -15 -15 -13 8 -21
-11 -14 -30 4 -8 15 -15 25 -13 10 2 25 -6 35 -17 15 -19 15 -18 0 8 -18 30
-5 38 16 9 14 -19 38 -37 38 -28 0 16 -54 57 -69 51 -27 -11 -33 -10 -38 3 -3
7 -1 12 4 11 20 -3 34 2 28 11 -9 15 2 12 30 -6 23 -15 27 -15 62 7 21 13 41
24 45 24 3 0 10 3 14 7 4 4 13 0 20 -10 10 -14 15 -15 26 -4 11 11 10 12 -5 7
-9 -4 -17 -3 -17 2 0 5 8 9 18 10 9 1 22 2 27 3 20 4 35 0 35 -10 0 -5 -8 -7
-17 -3 -14 5 -15 3 -6 -7 14 -15 33 -5 33 18 1 15 2 15 15 -2 8 -11 15 -14 15
-7 0 7 4 10 9 7 5 -4 11 -1 13 5 3 8 10 6 21 -5 9 -10 17 -13 17 -8 0 13 61
22 79 12 7 -4 29 -4 47 0 19 4 36 4 39 -1 3 -4 12 -6 20 -2 9 3 15 -1 16 -8 0
-8 4 -5 9 6 5 11 9 16 9 10 1 -11 62 -12 79 -1 7 4 12 2 12 -4 0 -6 5 -8 10
-5 6 4 81 8 168 11 86 2 168 5 182 7 18 1 24 -2 22 -13 -2 -8 0 -11 5 -7 4 5
8 14 8 20 0 12 63 29 83 22 7 -3 10 0 7 5 -3 6 1 10 9 10 9 0 18 0 21 0 3 0
21 9 42 20 20 10 40 17 45 14 4 -3 8 -1 8 5 0 10 38 27 53 23 4 -1 7 3 7 9 0
5 5 7 10 4 6 -3 10 -2 10 3 0 11 69 55 87 55 7 0 11 3 10 6 -1 3 2 8 7 11 5 3
35 31 68 63 32 31 64 57 70 57 6 0 8 3 5 7 -9 9 13 34 24 27 5 -3 8 -2 7 3 -1
4 21 45 51 90 29 45 53 85 53 90 0 4 9 20 19 35 10 14 19 32 19 40 0 8 4 18 8
24 5 5 15 29 22 54 25 85 29 104 37 175 3 33 11 63 17 67 6 5 7 8 1 8 -11 0
-12 141 -1 159 4 6 4 11 -1 11 -10 0 -9 112 1 128 4 7 3 12 -3 12 -7 0 -7 8
-1 25 5 13 6 26 1 29 -4 3 -6 27 -4 53 2 26 4 55 3 63 -2 68 -1 111 5 120 3 5
2 10 -2 10 -9 0 -10 60 -1 75 3 6 2 19 -2 30 -4 11 -4 32 1 48 4 15 5 27 1 27
-9 0 -7 155 2 169 4 6 4 11 -1 11 -4 0 -8 38 -8 84 0 46 4 82 8 79 5 -3 4 3
-2 14 -7 14 -7 23 0 30 8 8 7 13 -1 18 -8 5 -8 10 0 20 8 9 8 15 0 20 -7 4 -7
12 0 26 8 14 7 19 -1 19 -9 0 -9 3 0 14 7 8 8 16 4 19 -10 6 -9 59 1 75 4 7 2
12 -4 12 -7 0 -8 6 0 19 7 14 6 21 -3 24 -9 4 -9 6 1 6 8 1 10 6 5 14 -4 6 -8
34 -10 62 -1 27 -4 59 -7 70 -6 25 -3 41 7 37 5 -1 6 2 2 8 -3 6 -11 8 -16 5
-8 -6 -12 8 -12 48 0 9 -4 17 -8 17 -5 0 -9 11 -9 25 0 14 -5 25 -10 25 -7 0
-7 7 0 20 8 16 8 20 -2 18 -7 -2 -12 5 -11 15 0 10 -1 16 -5 13 -10 -10 -32
47 -27 68 4 14 3 17 -3 8 -7 -11 -10 -11 -18 0 -24 33 -44 77 -41 90 2 7 2 10
0 6 -8 -13 -23 -9 -23 6 0 8 -19 33 -42 55 -22 23 -36 41 -30 41 6 0 16 -8 22
-17 8 -12 10 -13 7 -3 -2 8 -14 20 -26 26 -32 16 -83 73 -75 85 3 5 -2 12 -10
15 -9 3 -13 10 -10 15 3 5 -1 11 -8 14 -8 3 -14 14 -15 25 -1 16 1 18 17 8 10
-7 18 -17 17 -22 -1 -6 8 -11 21 -11 12 0 22 4 21 9 0 5 5 13 13 18 10 8 10 9
-2 5 -8 -2 -14 -10 -12 -16 1 -6 -7 -11 -19 -11 -11 0 -18 4 -15 9 3 5 -5 16
-19 25 -13 9 -26 12 -29 8 -8 -14 0 -43 15 -53 8 -5 10 -9 4 -9 -5 0 -3 -6 5
-13 8 -7 16 -19 18 -27 1 -8 -11 -1 -27 17 -16 17 -31 29 -34 27 -12 -12 0 55
12 70 7 9 9 16 4 16 -5 0 -17 -14 -27 -31 -10 -16 -23 -28 -29 -25 -7 3 -20 9
-30 12 -10 4 -16 12 -13 19 3 8 -2 11 -15 8 -11 -3 -19 0 -19 6 0 7 4 9 10 6
6 -4 7 1 3 11 -5 14 -7 14 -15 1 -7 -14 -11 -14 -38 0 -25 12 -29 19 -24 36 6
22 6 22 -9 2 -12 -15 -18 -17 -29 -7 -8 6 -19 8 -23 4 -5 -4 -5 1 -2 10 3 10
2 20 -3 23 -16 10 -11 21 10 21 13 0 18 -5 15 -16 -6 -20 10 -46 19 -31 4 6 2
11 -3 11 -6 0 -11 4 -11 9 0 16 49 9 53 -8 4 -13 5 -13 6 2 0 10 6 15 11 12 6
-4 8 -11 5 -16 -4 -5 -1 -9 4 -9 15 0 14 6 -5 34 -10 16 -12 26 -5 31 6 3 11
2 11 -4 0 -12 40 -51 52 -51 5 0 7 4 4 9 -4 5 0 12 6 15 7 3 3 3 -9 0 -16 -4
-26 2 -39 21 -13 19 -20 23 -30 14 -7 -6 -11 -16 -8 -23 7 -19 -33 -13 -53 7
-10 10 -12 17 -6 17 7 0 15 -4 18 -10 3 -5 11 -10 18 -10 6 0 1 7 -11 16 -12
8 -26 13 -31 10 -12 -8 -42 4 -36 14 6 10 55 4 68 -9 15 -15 24 -14 24 2 0 12
-13 16 -60 17 -11 1 -15 6 -10 13 3 7 -4 3 -16 -8 l-23 -20 -25 30 c-14 17
-23 25 -19 19 3 -7 -1 -17 -10 -24 -13 -12 -14 -10 -10 13 4 25 3 26 -16 16
-18 -10 -20 -9 -15 5 4 9 2 16 -3 16 -6 0 -10 -8 -10 -17 -1 -17 -1 -17 -11
-1 -5 9 -16 15 -24 12 -8 -4 -12 -10 -9 -15 3 -5 -2 -9 -11 -9 -9 0 -14 4 -11
9 3 5 -1 14 -9 21 -13 11 -18 10 -30 -6 -8 -10 -15 -22 -15 -26 0 -5 -5 -8
-11 -8 -7 0 -5 10 6 26 9 14 14 28 11 32 -3 3 -6 -1 -6 -8 0 -7 -3 -10 -7 -7
-3 4 -11 3 -17 -2 -6 -4 -20 -11 -31 -15 -17 -5 -16 -4 4 12 17 14 19 19 7 19
-9 0 -16 -5 -16 -10 0 -5 -7 -4 -15 3 -12 10 -16 9 -21 -4 -3 -9 -10 -13 -15
-10 -5 3 -7 8 -5 12 2 4 -117 7 -264 7 -148 1 -266 -3 -264 -7 3 -4 0 -8 -7
-8 -7 0 -10 -3 -7 -6 4 -3 16 -1 27 6 16 8 27 8 42 -1 12 -6 19 -7 16 -2 -4 5
0 10 8 10 8 0 15 -3 15 -7 0 -4 7 -7 15 -7 8 0 15 5 15 11 0 6 5 4 10 -4 5 -8
10 -10 10 -4 0 6 7 11 16 11 14 0 14 -2 -2 -14 -12 -9 -15 -16 -8 -23 7 -7 15
-2 24 15 7 14 18 25 23 25 5 0 3 -8 -4 -17 -12 -15 -12 -16 1 -8 24 15 67 13
66 -4 -1 -7 5 -16 13 -19 10 -3 11 0 5 9 -13 21 -14 39 -2 39 6 0 7 -8 4 -17
-5 -15 -4 -15 9 1 8 11 15 15 15 10 0 -6 -3 -14 -8 -20 -4 -5 -3 -6 3 -1 13
10 25 9 25 -4 0 -5 -4 -8 -9 -4 -5 3 -13 0 -17 -6 -5 -8 -3 -9 6 -4 9 6 11 4
5 -6 -7 -11 -6 -12 7 -2 8 7 18 10 22 6 4 -4 4 1 1 12 -5 15 -4 16 3 6 7 -9
12 -10 16 -2 4 6 2 11 -4 11 -6 0 -8 5 -4 11 5 8 10 6 16 -5 7 -13 13 -14 22
-7 10 8 18 5 32 -11 10 -12 13 -18 5 -13 -9 5 -12 4 -7 -3 4 -7 -1 -10 -13 -7
-14 3 -18 -1 -14 -12 4 -11 8 -11 13 -3 6 9 9 9 13 -1 4 -11 6 -11 6 1 1 10 5
8 16 -7 15 -22 29 -24 54 -9 9 6 12 5 8 -1 -3 -5 0 -10 8 -10 11 0 12 4 4 13
-6 7 -6 14 -1 18 6 3 13 -1 16 -10 3 -8 11 -12 17 -8 8 5 9 2 4 -7 -6 -11 -5
-12 6 -1 17 16 26 15 26 -3 0 -9 -6 -14 -12 -11 -7 2 -18 -1 -25 -7 -7 -7 -10
-7 -7 -1 6 11 -120 13 -139 1 -6 -3 -14 -3 -18 0 -11 11 -179 10 -193 0 -9 -6
-13 -6 -13 1 0 6 -8 9 -17 6 -15 -5 -16 -4 -3 5 8 6 13 11 10 12 -3 0 -13 2
-23 4 -12 2 -17 -1 -13 -10 3 -8 -2 -12 -12 -10 -9 1 -20 -3 -24 -9 -6 -8 -8
-8 -8 1 0 6 5 15 10 18 6 3 10 10 10 16 0 5 -9 4 -19 -3 -11 -7 -17 -16 -14
-21 3 -5 -4 -4 -15 2 -27 14 -32 14 -28 -1 1 -7 1 -10 -1 -5 -3 4 -9 5 -14 2
-5 -4 -6 1 -3 10 5 11 2 14 -10 9 -9 -3 -14 -9 -11 -13 2 -4 -2 -8 -10 -8 -8
0 -15 4 -15 9 0 4 -5 8 -11 8 -5 0 -8 -4 -5 -8 6 -10 -70 -9 -80 1 -10 10 -26
9 -20 -1 2 -4 -8 -8 -23 -7 -27 0 -28 1 -12 22 9 12 19 23 24 23 4 0 7 5 7 11
0 5 -4 7 -10 4 -5 -3 -10 -1 -10 4 0 6 5 11 11 11 5 0 7 5 4 10 -5 8 -11 7
-21 -1 -7 -6 -11 -15 -8 -21 3 -5 -1 -20 -10 -33 -16 -24 -17 -24 -35 -7 -10
9 -32 28 -47 41 -16 14 -21 22 -12 18 10 -3 20 -2 23 3 4 6 11 10 18 10 6 0 3
-6 -7 -13 -18 -13 -17 -15 12 -35 35 -26 50 -29 32 -7 -7 9 -10 18 -6 22 3 3
6 1 6 -5 0 -7 4 -12 9 -12 5 0 9 11 9 25 0 14 -4 25 -9 25 -5 0 -9 -5 -9 -11
0 -5 -5 -7 -11 -3 -24 14 42 27 71 13 3 -1 18 -2 35 -3 16 -1 30 -6 30 -13 0
-6 4 -15 9 -20 5 -4 7 3 4 19 -3 18 -1 25 8 21 7 -2 10 -11 8 -18 -3 -7 4 -19
16 -25 13 -7 19 -17 16 -27 -5 -11 -2 -13 10 -9 8 3 18 6 20 6 2 0 4 5 4 11 0
5 -4 7 -10 4 -11 -7 -13 3 -12 48 0 15 -4 27 -9 27 -5 0 -9 -4 -9 -10 0 -5 -5
-10 -11 -10 -5 0 -8 3 -5 8 2 4 -47 7 -110 8 -63 0 -114 -4 -114 -8 0 -4 -5
-8 -11 -8 -5 0 -7 5 -4 10 3 6 1 10 -4 10 -6 0 -11 -6 -11 -12 0 -9 -3 -9 -9
1 -8 12 -13 11 -31 -10 -20 -23 -21 -23 -10 -1 6 13 7 22 1 22 -5 0 -12 -6
-14 -12 -4 -10 -6 -10 -6 0 -1 9 -7 8 -26 -4 -21 -14 -26 -14 -30 -2 -5 12
-31 15 -133 15 -79 -1 -130 -5 -134 -11 -5 -7 -8 -7 -8 2 0 7 -13 12 -31 12
-21 0 -28 -4 -23 -12 5 -9 2 -9 -9 1 -14 11 -17 11 -17 0 0 -11 -2 -11 -8 -1
-11 17 -88 11 -84 -7 1 -7 -2 -10 -8 -6 -6 3 -8 11 -5 16 4 5 3 8 -2 8 -4 -1
-21 -4 -38 -6z m206 -26 c-10 -9 -11 -8 -5 6 3 10 9 15 12 12 3 -3 0 -11 -7
-18z m63 12 c-4 -8 1 -9 17 -5 20 6 21 5 6 -4 -19 -12 -41 -4 -32 11 4 5 8 9
11 9 3 0 2 -5 -2 -11z m66 1 c0 -5 -5 -10 -11 -10 -5 0 -7 5 -4 10 3 6 8 10
11 10 2 0 4 -4 4 -10z m94 -2 c-3 -4 -12 -8 -20 -8 -8 0 -14 4 -14 8 0 4 9 8
19 8 11 0 17 -4 15 -8z m61 -37 c-15 -15 -39 -6 -29 11 5 7 1 9 -9 5 -10 -3
-17 -2 -17 4 0 6 8 9 18 7 9 -2 16 -10 15 -16 -3 -14 13 -16 22 -3 3 5 1 12
-5 16 -5 3 -10 11 -10 18 0 6 6 2 14 -9 12 -16 13 -21 1 -33z m785 43 c0 -8
-19 -13 -24 -6 -3 5 1 9 9 9 8 0 15 -2 15 -3z m124 -6 c-3 -4 0 -8 5 -8 6 0
11 4 11 9 0 12 27 8 41 -6 14 -14 42 -5 32 10 -3 6 -1 7 5 3 6 -4 9 -13 5 -21
-7 -20 37 -16 55 5 11 13 11 11 2 -7 -12 -26 -13 -25 18 -28 15 -2 21 2 18 11
-5 14 20 40 27 27 2 -4 3 -16 2 -25 -4 -24 10 -23 35 2 20 20 20 20 18 -5 -2
-19 -7 -24 -19 -20 -10 3 -20 1 -24 -5 -3 -6 -12 -7 -18 -3 -7 4 -18 8 -25 9
-10 2 -10 -1 -1 -12 6 -7 15 -11 20 -8 5 3 9 0 9 -5 0 -6 -6 -11 -14 -11 -8 0
-16 -3 -19 -7 -2 -5 -3 -3 -1 3 4 17 -16 33 -33 27 -7 -3 -13 -2 -12 3 3 20
-2 34 -12 34 -6 0 -7 -5 -2 -12 7 -13 9 -18 12 -37 0 -6 10 -8 20 -6 14 3 18
-1 14 -12 -3 -8 -9 -11 -12 -6 -3 4 -13 8 -21 8 -8 0 -15 7 -15 15 0 10 -9 15
-27 14 -15 -1 -25 2 -23 7 10 15 -21 16 -38 1 -26 -23 -46 -23 -57 -1 -6 10
-8 19 -4 19 4 0 -2 10 -14 23 l-21 23 34 0 c18 0 31 -4 29 -8z m-1417 -16
c-10 -10 -14 -22 -10 -27 5 -4 2 -5 -5 -1 -11 6 -10 12 4 27 9 10 19 19 22 19
3 0 -2 -8 -11 -18z m57 -1 c15 -17 15 -19 1 -25 -10 -3 -14 -2 -10 5 4 5 1 16
-5 24 -18 22 -6 18 14 -4z m313 -13 c-3 -7 -5 -2 -5 12 0 14 2 19 5 13 2 -7 2
-19 0 -25z m55 -2 c10 1 21 -3 25 -8 3 -7 1 -8 -5 -4 -7 4 -12 1 -12 -6 0 -10
-2 -10 -9 0 -4 8 -12 12 -17 10 -5 -1 -10 8 -11 22 -2 22 -1 23 5 4 4 -13 14
-20 24 -18z m-272 -8 c0 -19 -16 -5 -17 14 -2 18 0 20 7 8 5 -8 10 -18 10 -22z
m110 17 c7 -9 8 -15 2 -15 -5 0 -12 7 -16 15 -3 8 -4 15 -2 15 2 0 9 -7 16
-15z m310 6 c0 -5 -7 -12 -16 -15 -21 -8 -24 -8 -24 5 0 5 5 7 10 4 6 -3 10
-1 10 4 0 6 5 11 10 11 6 0 10 -4 10 -9z m89 -31 c21 -22 41 -37 44 -33 4 3 7
1 7 -6 0 -7 -4 -11 -9 -9 -12 4 -91 77 -91 83 0 12 13 2 49 -35z m251 30 c0
-5 -5 -10 -11 -10 -5 0 -7 5 -4 10 3 6 8 10 11 10 2 0 4 -4 4 -10z m-883 -13
c0 -8 -6 -14 -14 -14 -9 0 -10 4 -2 14 6 7 12 13 14 13 1 0 2 -6 2 -13z m683
3 c0 -5 -2 -10 -4 -10 -3 0 -8 5 -11 10 -3 6 -1 10 4 10 6 0 11 -4 11 -10z
m-763 -18 c-17 -18 -51 -27 -41 -10 3 5 9 6 14 3 4 -3 13 2 20 10 7 8 15 15
18 15 3 0 -2 -8 -11 -18z m160 12 c-3 -3 -12 -4 -19 -1 -8 3 -5 6 6 6 11 1 17
-2 13 -5z m243 -4 c0 -5 -7 -7 -15 -4 -8 4 -15 8 -15 10 0 2 7 4 15 4 8 0 15
-4 15 -10z m270 -17 c0 4 11 -3 24 -15 28 -27 25 -39 -4 -13 -16 14 -22 15
-35 5 -10 -8 -15 -9 -15 -1 0 6 5 11 12 11 9 0 9 3 0 12 -7 7 -12 17 -12 23 0
5 7 1 15 -9 8 -11 15 -17 15 -13z m1100 18 c0 -17 -32 -42 -46 -37 -8 3 -20
-3 -26 -14 -7 -11 -18 -20 -25 -20 -8 0 -3 10 10 23 12 12 30 22 39 22 10 0
17 4 17 9 0 5 5 13 13 17 17 11 18 11 18 0z m21 -5 c-15 -17 11 -30 28 -13 8
8 15 6 28 -5 10 -9 32 -23 48 -32 17 -10 23 -15 14 -12 -9 2 -21 0 -27 -6 -14
-14 -35 0 -28 18 3 8 2 14 -2 15 -37 6 -72 5 -62 -1 8 -5 9 -10 2 -14 -6 -3
-13 -2 -17 4 -8 13 -25 3 -25 -13 0 -8 3 -8 9 2 6 9 11 10 15 2 4 -6 2 -11 -4
-11 -6 0 -8 -6 -4 -12 5 -10 4 -10 -6 -1 -7 6 -19 9 -26 6 -8 -3 -14 0 -14 7
0 6 -5 8 -11 4 -7 -4 -10 -1 -7 7 3 8 11 14 19 14 21 1 59 15 58 23 -3 19 2
32 12 32 8 0 8 -4 0 -14z m-1164 -28 c-3 -7 -5 -2 -5 12 0 14 2 19 5 13 2 -7
2 -19 0 -25z m-391 7 c-1 -8 -6 -18 -11 -22 -4 -5 -5 -2 0 6 6 11 4 13 -11 8
-18 -7 -18 -7 0 8 24 18 25 18 22 0z m75 -2 c13 -16 12 -17 -3 -4 -10 7 -18
15 -18 17 0 8 8 3 21 -13z m69 7 c0 -5 -2 -10 -4 -10 -3 0 -8 5 -11 10 -3 6
-1 10 4 10 6 0 11 -4 11 -10z m65 0 c3 -5 1 -10 -4 -10 -6 0 -11 5 -11 10 0 6
2 10 4 10 3 0 8 -4 11 -10z m75 0 c0 -5 -8 -10 -17 -10 -15 0 -16 2 -3 10 19
12 20 12 20 0z m60 0 c0 -5 -4 -10 -10 -10 -5 0 -10 5 -10 10 0 6 5 10 10 10
6 0 10 -4 10 -10z m-454 -22 c3 -4 -1 -5 -10 -4 -8 1 -18 5 -22 8 -3 4 1 5 10
4 8 -1 18 -5 22 -8z m234 2 c0 -5 -7 -7 -15 -4 -8 4 -15 8 -15 10 0 2 7 4 15
4 8 0 15 -4 15 -10z m53 -5 c-3 -9 -8 -14 -10 -11 -3 3 -2 9 2 15 9 16 15 13
8 -4z m67 5 c0 -5 -4 -10 -10 -10 -5 0 -10 5 -10 10 0 6 5 10 10 10 6 0 10 -4
10 -10z m81 -7 c11 -15 11 -16 -1 -5 -21 18 -34 15 -19 -5 13 -16 12 -17 -3
-4 -10 7 -15 17 -12 22 8 14 20 11 35 -8z m-622 -6 c8 -10 7 -14 -2 -14 -8 0
-14 6 -14 14 0 7 1 13 2 13 2 0 8 -6 14 -13z m82 -4 c13 -16 12 -17 -3 -4 -10
7 -18 15 -18 17 0 8 8 3 21 -13z m36 2 c0 -8 -4 -12 -9 -9 -5 3 -6 10 -3 15 9
13 12 11 12 -6z m553 11 c0 -2 -7 -6 -15 -10 -8 -3 -15 -1 -15 4 0 6 7 10 15
10 8 0 15 -2 15 -4z m1234 -21 c4 -16 13 -25 26 -25 22 0 35 -16 20 -25 -5 -3
-10 -2 -10 4 0 5 -9 8 -20 6 -11 -2 -22 0 -25 5 -3 5 -12 7 -20 3 -11 -4 -13
-1 -8 13 6 17 5 17 -10 5 -9 -7 -17 -9 -17 -3 0 5 7 15 15 22 12 10 16 9 21
-4 3 -9 11 -16 17 -16 7 0 7 4 -1 12 -14 14 -16 28 -3 28 5 0 12 -11 15 -25z
m-2030 -1 c3 -8 2 -12 -4 -9 -6 3 -10 10 -10 16 0 14 7 11 14 -7z m633 10 c-3
-3 -12 -4 -19 -1 -8 3 -5 6 6 6 11 1 17 -2 13 -5z m233 2 c0 -2 -7 -7 -16 -10
-8 -3 -12 -2 -9 4 6 10 25 14 25 6z m-860 -60 c0 -3 -4 -8 -10 -11 -5 -3 -10
-1 -10 4 0 6 5 11 10 11 6 0 10 -2 10 -4z m-90 -20 c0 -2 -8 -10 -17 -17 -16
-13 -17 -12 -4 4 13 16 21 21 21 13z m2402 -108 c-7 -7 -12 -8 -12 -2 0 6 3
14 7 17 3 4 9 5 12 2 2 -3 -1 -11 -7 -17z m-2859 -233 c-3 -9 -8 -14 -10 -11
-3 3 -2 9 2 15 9 16 15 13 8 -4z m7 -65 c0 -5 -5 -10 -11 -10 -5 0 -7 5 -4 10
3 6 8 10 11 10 2 0 4 -4 4 -10z m-82 -165 c-3 -3 -9 2 -12 12 -6 14 -5 15 5 6
7 -7 10 -15 7 -18z m17 -74 c-9 -8 -36 -10 -30 -2 2 4 11 8 20 8 8 0 13 -3 10
-6z m-55 -161 c0 -5 -2 -10 -4 -10 -3 0 -8 5 -11 10 -3 6 -1 10 4 10 6 0 11
-4 11 -10z m-5 -48 c-3 -3 -11 0 -18 7 -9 10 -8 11 6 5 10 -3 15 -9 12 -12z
m-2 -47 c-3 -9 -8 -14 -10 -11 -3 3 -2 9 2 15 9 16 15 13 8 -4z m12 -185 c3
-6 -1 -7 -9 -4 -18 7 -21 14 -7 14 6 0 13 -4 16 -10z m-29 -142 c3 -4 -1 -5
-10 -4 -8 1 -18 5 -22 8 -3 4 1 5 10 4 8 -1 18 -5 22 -8z m-36 -78 c0 -5 -2
-10 -4 -10 -3 0 -8 5 -11 10 -3 6 -1 10 4 10 6 0 11 -4 11 -10z m0 -40 c0 -5
-5 -10 -11 -10 -5 0 -7 5 -4 10 3 6 8 10 11 10 2 0 4 -4 4 -10z m60 -84 c0 -2
-8 -10 -17 -17 -16 -13 -17 -12 -4 4 13 16 21 21 21 13z m-43 -61 c0 -8 -4
-12 -9 -9 -5 3 -6 10 -3 15 9 13 12 11 12 -6z m-22 -95 c3 -5 1 -10 -4 -10 -6
0 -11 5 -11 10 0 6 2 10 4 10 3 0 8 -4 11 -10z m5 -34 c0 -3 -4 -8 -10 -11 -5
-3 -10 -1 -10 4 0 6 5 11 10 11 6 0 10 -2 10 -4z m51 -39 c-10 -9 -11 -8 -5 6
3 10 9 15 12 12 3 -3 0 -11 -7 -18z m15 -29 c3 -4 -1 -5 -10 -4 -8 1 -18 5
-22 8 -3 4 1 5 10 4 8 -1 18 -5 22 -8z m-73 -193 c-3 -9 -8 -14 -10 -11 -3 3
-2 9 2 15 9 16 15 13 8 -4z m88 -42 c13 -16 12 -17 -3 -4 -10 7 -18 15 -18 17
0 8 8 3 21 -13z m-25 -27 c0 -14 -3 -23 -7 -20 -6 3 -6 22 0 42 3 10 7 -2 7
-22z m-39 7 c-4 -3 -1 -13 6 -22 11 -14 10 -14 -5 -2 -16 12 -16 31 -1 31 4 0
3 -3 0 -7z m43 -102 c0 -6 -4 -12 -8 -15 -5 -3 -9 1 -9 9 0 8 4 15 9 15 4 0 8
-4 8 -9z m-63 -46 c0 -8 -4 -12 -9 -9 -4 3 -8 9 -8 15 0 5 4 9 8 9 5 0 9 -7 9
-15z m59 -64 c0 -22 -4 -37 -7 -35 -3 2 -5 16 -3 31 3 40 4 43 8 43 1 0 3 -18
2 -39z m-37 -55 c-3 -3 -11 5 -18 17 -13 21 -12 21 5 5 10 -10 16 -20 13 -22z
m66 -35 c-9 -8 -36 -10 -30 -2 2 4 11 8 20 8 8 0 13 -3 10 -6z m-9 -41 c0 -12
-4 -16 -9 -11 -5 5 -6 14 -3 20 10 15 12 14 12 -9z m-61 -18 c-3 -3 0 -11 6
-19 17 -20 5 -16 -14 5 -15 16 -15 19 -2 19 8 0 13 -3 10 -5z m41 -28 c1 -9
-1 -13 -4 -9 -4 4 -7 10 -7 13 0 4 -4 14 -9 22 -7 12 -6 13 4 3 8 -7 15 -20
16 -29z m32 -35 c-3 -8 -7 -3 -11 10 -4 17 -3 21 5 13 5 -5 8 -16 6 -23z m-50
-4 c-3 -3 -9 2 -12 12 -6 14 -5 15 5 6 7 -7 10 -15 7 -18z m-18 1 c0 -2 -8
-10 -17 -17 -16 -13 -17 -12 -4 4 13 16 21 21 21 13z m17 -38 c0 -13 -1 -17
-4 -10 -3 6 -10 9 -16 5 -7 -4 -6 1 2 10 17 21 17 21 18 -5z m51 9 c18 6 17 5
-8 -14 -13 -10 -16 -8 -17 10 0 12 1 17 4 10 2 -7 12 -9 21 -6z m-77 -34 c13
-16 12 -17 -3 -4 -17 13 -22 21 -14 21 2 0 10 -8 17 -17z m49 -29 c0 -8 -19
-13 -24 -6 -3 5 1 9 9 9 8 0 15 -2 15 -3z m17 -19 c0 -8 -5 -11 -10 -8 -7 4
-8 -1 -3 -13 6 -15 5 -16 -5 -7 -10 10 -9 15 1 28 15 19 17 19 17 0z m-22 -44
c3 -5 2 -12 -3 -15 -5 -3 -9 1 -9 9 0 17 3 19 12 6z m45 -31 c-4 -8 -6 -26 -3
-39 2 -14 0 -22 -3 -18 -4 4 -8 17 -8 29 -1 13 -5 28 -8 33 -4 6 2 11 12 11
13 0 16 -5 10 -16z m-49 -87 c-12 -20 -14 -14 -5 12 4 9 9 14 11 11 3 -2 0
-13 -6 -23z m106 -37 c0 -8 -6 -12 -15 -9 -11 5 -11 7 0 14 7 5 13 9 14 9 0 0
1 -6 1 -14z m20 -43 c-4 -3 1 -12 11 -20 15 -13 15 -13 -5 -4 -28 14 -36 14
-27 -1 5 -7 3 -8 -6 -3 -10 6 -9 11 5 22 19 13 33 18 22 6z m-60 -45 c0 -13
-1 -17 -4 -10 -3 6 -9 10 -14 6 -5 -3 -9 -1 -9 5 0 5 6 12 13 14 6 3 12 6 12
6 1 1 1 -9 2 -21z m58 2 c-3 -5 -12 -10 -18 -10 -7 0 -6 4 3 10 19 12 23 12
15 0z m40 -10 c3 -5 1 -10 -4 -10 -6 0 -11 5 -11 10 0 6 2 10 4 10 3 0 8 -4
11 -10z m-4 -37 c13 -17 13 -17 -6 -3 -11 8 -22 16 -24 17 -2 2 0 3 6 3 6 0
17 -8 24 -17z m-25 -9 c18 -15 18 -15 -3 -5 -28 14 -36 14 -27 -1 4 -7 3 -8
-5 -4 -11 7 -6 26 8 26 4 0 16 -7 27 -16z m-52 -10 c3 -8 2 -12 -4 -9 -6 3
-10 10 -10 16 0 14 7 11 14 -7z m119 -16 c-2 -5 -14 -6 -25 -2 -15 4 -18 3
-13 -6 5 -9 4 -11 -4 -6 -17 11 -2 28 20 21 15 -5 18 -3 13 12 -5 14 -4 15 4
3 6 -8 8 -18 5 -22z m-83 -8 c-6 -11 -13 -20 -16 -20 -2 0 0 9 6 20 6 11 13
20 16 20 2 0 0 -9 -6 -20z m41 -25 c3 2 6 -6 6 -18 2 -23 -6 -15 -28 28 -9 18
-9 19 4 3 8 -10 16 -16 18 -13z m49 -5 c0 -5 -8 -10 -17 -10 -15 0 -16 2 -3
10 19 12 20 12 20 0z m44 -19 c4 -5 -2 -7 -12 -4 -13 3 -18 -2 -19 -18 -2 -17
1 -19 10 -10 6 6 16 11 22 11 5 0 1 -6 -10 -12 -19 -11 -19 -11 0 -19 16 -6
16 -8 4 -8 -29 -2 -42 27 -30 67 2 6 31 1 35 -7z m-64 -21 c-8 -5 -19 -10 -25
-10 -5 0 -3 5 5 10 8 5 20 10 25 10 6 0 3 -5 -5 -10z m30 -63 c-10 -11 -44 -5
-41 7 2 5 -3 13 -11 18 -10 8 -10 9 2 5 8 -2 14 -10 13 -16 -2 -6 7 -11 19
-11 20 0 20 1 5 18 -10 10 -17 22 -17 26 0 5 9 -2 19 -15 11 -13 16 -28 11
-32z m67 26 c1 -24 1 -25 -7 -8 -11 26 -12 35 -2 35 4 0 8 -12 9 -27z m-29
-27 c-10 -7 -15 -16 -11 -19 3 -4 1 -7 -5 -7 -7 0 -12 4 -12 8 0 12 22 32 35
32 5 0 2 -7 -7 -14z m72 -16 c6 -11 15 -18 20 -15 14 9 30 -29 19 -46 -7 -12
-9 -12 -10 1 -1 8 -1 21 0 27 1 8 -5 10 -14 7 -8 -3 -15 -1 -15 4 0 6 -7 18
-16 26 -8 9 -11 16 -5 16 6 0 15 -9 21 -20z m-30 0 c8 -5 11 -10 5 -10 -5 0
-17 5 -25 10 -8 5 -10 10 -5 10 6 0 17 -5 25 -10z m-14 -25 c5 -13 9 -13 22
-3 12 10 11 7 -2 -14 -21 -32 -28 -36 -19 -10 3 9 3 14 -2 10 -10 -10 -37 11
-29 23 8 14 24 11 30 -6z m-16 -52 c-1 -10 -39 39 -40 51 0 5 9 -3 20 -17 11
-14 20 -29 20 -34z m70 33 c0 -2 -7 -7 -16 -10 -8 -3 -12 -2 -9 4 6 10 25 14
25 6z m72 -20 c7 4 8 2 4 -5 -4 -6 -12 -9 -17 -6 -5 4 -9 1 -9 -4 0 -6 -5 -11
-10 -11 -6 0 -5 8 2 20 7 11 14 16 16 10 2 -6 9 -7 14 -4z m-87 -26 c3 -10 19
-30 36 -44 16 -14 26 -27 21 -30 -4 -2 -18 9 -31 25 -13 16 -28 26 -34 22 -6
-3 -7 -1 -3 6 4 6 2 18 -4 26 -8 10 -9 15 -2 15 6 0 13 -9 17 -20z m1320 -193
c7 9 15 12 18 7 3 -5 -10 -20 -28 -33 -27 -18 -37 -20 -54 -12 -12 7 -18 17
-15 26 7 18 46 24 58 9 8 -10 13 -9 21 3z m-520 -27 c-9 -15 15 -22 30 -10 11
9 15 9 15 1 0 -6 -5 -11 -11 -11 -5 0 -7 -5 -3 -11 4 -8 12 -3 20 12 8 15 13
18 14 9 0 -13 1 -13 10 0 5 8 18 15 29 16 19 1 19 1 -1 -26 -12 -17 -17 -33
-13 -42 5 -7 5 -10 0 -6 -4 4 -14 3 -22 -4 -11 -8 -12 -7 -7 5 5 15 -10 18
-31 5 -5 -3 -20 -2 -32 3 -16 6 -21 13 -16 26 8 24 -7 10 -21 -19 -9 -17 -20
-23 -48 -23 -20 -1 -34 3 -32 7 3 4 0 8 -7 8 -7 0 -4 7 7 15 16 13 16 14 1 9
-9 -3 -24 -1 -32 6 -13 10 -19 9 -35 -5 -11 -10 -18 -21 -15 -25 3 -5 -33 -6
-54 -1 -2 1 3 9 12 19 10 10 14 22 10 27 -5 4 -3 5 4 1 6 -3 14 -2 18 4 4 6
12 7 18 3 18 -11 100 -11 117 1 9 7 8 2 -3 -11 -14 -16 -15 -22 -5 -25 18 -6
60 22 55 36 -3 7 4 13 14 13 11 1 17 -2 14 -7z m354 1 c10 -6 10 -10 1 -16 -6
-4 -9 -13 -6 -21 6 -16 -10 -19 -19 -4 -4 6 -1 19 6 28 11 13 8 12 -9 -2 -19
-16 -22 -17 -22 -3 0 13 12 24 30 26 3 0 11 -3 19 -8z m-769 -11 c0 -5 -4 -10
-10 -10 -5 0 -10 5 -10 10 0 6 5 10 10 10 6 0 10 -4 10 -10z m587 -10 c-1 -11
2 -20 7 -19 5 0 13 -5 17 -13 5 -7 9 -8 9 -3 0 6 -5 17 -10 25 -8 12 -10 12
-10 1 0 -8 -2 -12 -5 -9 -3 3 -2 13 1 22 5 13 9 15 15 5 11 -18 48 -18 59 0
13 23 12 7 -2 -24 -6 -14 -15 -25 -20 -25 -5 0 -6 5 -3 10 3 6 2 10 -4 10 -5
0 -12 -8 -15 -18 -4 -12 -16 -18 -36 -18 -16 0 -27 3 -24 7 2 5 12 6 22 3 14
-5 14 -4 3 4 -8 6 -20 8 -26 6 -7 -3 -15 2 -18 10 -4 11 -1 13 11 9 9 -3 14
-3 10 2 -4 4 -3 14 3 22 16 18 19 16 16 -7z m73 10 c0 -5 -2 -10 -4 -10 -3 0
-8 5 -11 10 -3 6 -1 10 4 10 6 0 11 -4 11 -10z m-586 -18 c2 -4 -5 -9 -17 -9
-17 -2 -19 0 -7 7 18 12 18 12 24 2z m621 -22 c-3 -5 -10 -10 -16 -10 -5 0 -9
5 -9 10 0 6 7 10 16 10 8 0 12 -4 9 -10z m-441 -8 c3 -5 -1 -9 -9 -9 -8 0 -12
4 -9 9 3 4 7 8 9 8 2 0 6 -4 9 -8z"/>
<path d="M2362 3563 c6 -8 13 -22 14 -30 3 -19 14 -30 14 -15 0 7 5 12 11 12
5 0 7 -6 3 -12 -4 -7 4 -3 17 9 20 18 28 20 44 10 11 -6 28 -12 39 -12 16 -2
15 1 -5 16 -13 10 -27 15 -32 12 -5 -3 -14 3 -22 13 -13 18 -14 18 -20 2 -6
-15 -11 -16 -28 -6 -35 19 -51 20 -35 1z m67 -6 c6 10 11 13 11 6 0 -6 -6 -15
-12 -19 -14 -9 -51 -13 -43 -6 3 3 -1 12 -8 20 -9 12 -5 11 15 -2 25 -16 27
-16 37 1z"/>
<path d="M2595 3561 c-3 -5 -2 -12 3 -15 5 -3 9 1 9 9 0 17 -3 19 -12 6z"/>
<path d="M345 370 c3 -5 8 -10 11 -10 2 0 4 5 4 10 0 6 -5 10 -11 10 -5 0 -7
-4 -4 -10z"/>
<path d="M1661 104 c-1 -6 2 -13 5 -17 8 -8 34 3 34 15 0 6 -6 6 -14 -1 -11
-9 -15 -9 -19 1 -3 7 -6 8 -6 2z"/>
<path d="M1286 75 c-3 -9 -11 -13 -17 -9 -8 4 -9 3 -5 -4 4 -7 11 -12 16 -12
9 0 23 31 16 37 -2 2 -6 -3 -10 -12z"/>
<path d="M981 56 c-16 -17 -18 -23 -6 -23 19 0 49 33 37 41 -5 3 -19 -5 -31
-18z m29 10 c0 -2 -8 -10 -17 -17 -16 -13 -17 -12 -4 4 13 16 21 21 21 13z"/>
<path d="M1216 51 c-4 -5 -2 -12 3 -15 5 -4 12 -2 15 3 4 5 2 12 -3 15 -5 4
-12 2 -15 -3z"/>
<path d="M1095 41 c-7 -12 3 -16 34 -16 13 0 26 7 28 15 4 12 3 12 -5 1 -7
-10 -14 -10 -30 -2 -13 7 -23 7 -27 2z"/>
<path d="M1500 3590 c0 -5 7 -7 15 -4 8 4 15 8 15 10 0 2 -7 4 -15 4 -8 0 -15
-4 -15 -10z"/>
<path d="M1950 3569 c0 -5 -4 -8 -9 -5 -5 3 -14 0 -20 -8 -9 -11 -8 -15 5 -20
24 -9 31 -7 14 5 -12 8 -11 9 5 5 16 -5 21 -1 22 14 1 11 -2 20 -8 20 -5 0 -9
-5 -9 -11z"/>
<path d="M1782 3562 c-6 -2 -9 -9 -6 -16 3 -7 -2 -19 -11 -26 -8 -7 -15 -17
-15 -22 0 -6 6 -5 15 2 8 6 20 8 27 4 19 -12 50 -12 76 -1 26 12 28 22 7 31
-18 6 -45 -2 -45 -15 0 -13 13 -11 31 3 7 7 7 4 -3 -6 -21 -24 -38 -13 -33 24
3 28 -8 34 -43 22z m28 -27 c-6 -8 -8 -20 -4 -26 4 -8 3 -9 -4 -5 -16 10 -15
33 1 39 19 8 20 8 7 -8z"/>
<path d="M1975 3561 c-3 -2 3 -10 13 -18 9 -8 13 -12 7 -10 -5 3 -21 0 -35 -5
l-25 -10 24 -9 c17 -7 30 -5 47 6 13 8 25 11 29 6 3 -5 13 -8 23 -6 9 1 23 -3
31 -9 17 -14 81 -17 81 -4 0 5 6 6 13 1 6 -4 35 -8 62 -8 28 0 55 -4 62 -8 6
-4 14 -3 18 2 3 5 14 8 25 6 12 -2 18 0 15 5 -3 5 -14 7 -25 5 -12 -2 -24 4
-30 16 -6 10 -8 20 -5 20 3 1 10 2 15 3 6 0 10 4 10 9 0 4 0 10 0 13 0 4 -7 1
-15 -6 -8 -7 -15 -9 -15 -5 0 5 -9 0 -20 -10 -11 -10 -20 -15 -20 -10 0 4 -6
2 -14 -4 -10 -8 -16 -9 -21 -1 -3 6 -11 8 -16 4 -6 -3 -19 2 -30 12 -23 21
-46 26 -55 13 -3 -5 -10 -7 -15 -4 -5 3 -6 -1 -3 -9 7 -19 -24 -15 -40 5 -13
16 -36 23 -36 11 0 -5 -6 -16 -13 -26 -12 -16 -13 -16 -13 3 0 11 4 17 8 15 4
-3 8 -1 8 5 0 9 -36 11 -45 2z m205 -29 c13 -15 20 -18 29 -9 10 10 14 6 9
-10 -5 -14 -29 -11 -35 3 -4 12 -8 12 -19 -3 -8 -11 -13 -13 -14 -5 0 6 -5 12
-11 12 -5 0 -7 -4 -4 -10 10 -16 -1 -12 -15 6 -8 8 -9 14 -4 13 21 -4 35 2 29
11 -4 6 -11 7 -17 4 -6 -4 -8 -2 -5 4 10 16 38 8 57 -16z m-110 -2 c0 -10 -27
-7 -37 5 -4 4 -2 5 5 1 6 -4 12 -2 12 4 0 6 5 8 10 5 6 -3 10 -10 10 -15z
m227 13 c-4 -3 0 -17 9 -31 11 -17 12 -22 3 -16 -8 5 -24 8 -37 9 -12 0 -22 5
-22 10 0 6 4 10 10 10 5 0 15 6 22 13 6 6 14 12 17 12 2 0 1 -3 -2 -7z m-307
-23 c0 -5 -5 -10 -11 -10 -5 0 -7 5 -4 10 3 6 8 10 11 10 2 0 4 -4 4 -10z
m114 -6 c3 -8 2 -12 -4 -9 -6 3 -10 10 -10 16 0 14 7 11 14 -7z"/>
<path d="M2153 3535 c0 -8 4 -12 9 -9 5 3 6 10 3 15 -9 13 -12 11 -12 -6z"/>
<path d="M2275 3520 c-3 -5 -1 -10 4 -10 6 0 11 5 11 10 0 6 -2 10 -4 10 -3 0
-8 -4 -11 -10z"/>
<path d="M2780 3553 c0 -19 21 -27 33 -13 9 10 9 11 -2 5 -8 -4 -17 -2 -22 6
-6 9 -9 10 -9 2z"/>
<path d="M3014 3439 c-4 -7 -3 -9 4 -5 5 3 13 0 15 -6 4 -9 6 -10 6 -1 1 17
-16 25 -25 12z"/>
<path d="M2976 3403 c16 -29 19 -30 39 -17 12 8 25 11 28 7 4 -3 7 -1 7 5 0
15 -6 15 -32 1 -18 -10 -24 -8 -40 12 l-20 24 18 -32z"/>
<path d="M3060 3415 c10 -12 10 -18 0 -30 -9 -10 -9 -15 -1 -15 6 0 11 5 11
10 0 6 8 10 18 11 10 0 12 3 4 6 -6 2 -9 10 -6 15 4 7 2 8 -4 4 -7 -4 -12 -2
-12 3 0 6 -5 11 -11 11 -8 0 -8 -5 1 -15z"/>
<path d="M2998 3413 c7 -3 16 -2 19 1 4 3 -2 6 -13 5 -11 0 -14 -3 -6 -6z"/>
<path d="M2905 3401 c-3 -5 5 -7 17 -3 14 3 19 2 14 -6 -4 -7 -3 -12 2 -12 6
0 12 6 15 13 5 15 -39 22 -48 8z"/>
<path d="M3114 3374 c3 -9 6 -18 6 -20 0 -2 5 -4 11 -4 8 0 9 4 0 13 -6 8 -8
17 -4 20 3 4 1 7 -6 7 -8 0 -11 -6 -7 -16z"/>
<path d="M3030 3371 c0 -10 19 -25 25 -20 1 2 -3 10 -11 17 -8 7 -14 8 -14 3z"/>
<path d="M3010 3356 c0 -8 7 -17 16 -20 23 -9 24 -4 2 17 -14 13 -18 14 -18 3z"/>
<path d="M3150 3340 c0 -5 5 -10 10 -10 6 0 10 5 10 10 0 6 -4 10 -10 10 -5 0
-10 -4 -10 -10z"/>
<path d="M3191 3290 c-13 -11 -19 -20 -13 -20 10 0 42 27 42 36 0 7 -4 5 -29
-16z"/>
<path d="M3231 3290 c0 -8 4 -22 9 -30 12 -18 12 -2 0 25 -6 13 -9 15 -9 5z"/>
<path d="M3215 3260 c6 -10 4 -12 -8 -7 -8 3 -18 0 -20 -7 -4 -10 1 -12 14 -9
25 7 33 20 18 29 -8 5 -9 3 -4 -6z"/>
<path d="M3230 3231 c0 -7 -5 -9 -12 -5 -7 5 -8 3 -3 -5 5 -9 10 -10 18 -2 6
6 8 14 4 18 -4 3 -7 1 -7 -6z"/>
<path d="M3270 3229 c0 -5 5 -7 10 -4 6 3 10 8 10 11 0 2 -4 4 -10 4 -5 0 -10
-5 -10 -11z"/>
<path d="M3299 3228 c-6 -21 -5 -38 1 -38 5 0 8 9 7 20 -1 17 -5 26 -8 18z"/>
<path d="M3196 3207 c3 -10 9 -15 12 -12 3 3 0 11 -7 18 -10 9 -11 8 -5 -6z"/>
<path d="M3232 3194 c-7 -8 -8 -14 -3 -14 10 0 25 19 20 25 -2 1 -10 -3 -17
-11z"/>
<path d="M3253 3178 c-3 -6 -1 -8 5 -4 5 3 12 2 14 -4 2 -5 9 -6 16 -1 10 6 9
10 -7 14 -12 3 -24 0 -28 -5z"/>
<path d="M3270 3130 c-9 -6 -10 -10 -3 -10 6 0 15 5 18 10 8 12 4 12 -15 0z"/>
<path d="M3295 3111 c-3 -5 0 -13 6 -17 8 -4 9 -3 5 4 -10 16 6 15 24 0 12
-11 12 -10 1 5 -15 19 -27 22 -36 8z"/>
<path d="M3340 3080 c-8 -5 -10 -10 -5 -10 6 0 17 5 25 10 8 5 11 10 5 10 -5
0 -17 -5 -25 -10z"/>
<path d="M3388 3078 c5 -5 16 -8 23 -6 8 3 3 7 -10 11 -17 4 -21 3 -13 -5z"/>
<path d="M3366 3041 c-19 -7 -19 -8 0 -13 13 -3 21 0 21 8 0 8 -1 14 -1 13 -1
0 -10 -4 -20 -8z"/>
<path d="M3420 3025 c0 -2 6 -8 13 -14 10 -8 14 -7 14 2 0 8 -6 14 -14 14 -7
0 -13 -1 -13 -2z"/>
<path d="M3376 2993 c-6 -14 -5 -15 5 -6 7 7 10 15 7 18 -3 3 -9 -2 -12 -12z"/>
<path d="M3410 2962 c0 -5 7 -9 15 -9 8 0 12 4 9 9 -3 4 -9 8 -15 8 -5 0 -9
-4 -9 -8z"/>
<path d="M3450 2936 c0 -2 8 -10 18 -17 15 -13 16 -12 3 4 -13 16 -21 21 -21
13z"/>
<path d="M3424 2902 c4 -3 14 -7 22 -8 9 -1 13 0 10 4 -4 3 -14 7 -22 8 -9 1
-13 0 -10 -4z"/>
<path d="M3466 2862 c-2 -4 4 -8 14 -8 10 0 16 4 14 8 -3 4 -9 8 -14 8 -5 0
-11 -4 -14 -8z"/>
<path d="M3514 2816 c1 -8 5 -18 8 -22 4 -3 5 1 4 10 -1 8 -5 18 -8 22 -4 3
-5 -1 -4 -10z"/>
<path d="M3493 2765 c0 -8 4 -15 9 -15 4 0 8 4 8 9 0 6 -4 12 -8 15 -5 3 -9
-1 -9 -9z"/>
<path d="M3493 2675 c0 -8 4 -12 9 -9 4 3 8 9 8 15 0 5 -4 9 -8 9 -5 0 -9 -7
-9 -15z"/>
<path d="M3550 2616 c0 -2 8 -10 18 -17 15 -13 16 -12 3 4 -13 16 -21 21 -21
13z"/>
<path d="M3565 2560 c-3 -6 1 -7 9 -4 18 7 21 14 7 14 -6 0 -13 -4 -16 -10z"/>
<path d="M3506 2362 c-2 -4 4 -8 14 -8 10 0 16 4 14 8 -3 4 -9 8 -14 8 -5 0
-11 -4 -14 -8z"/>
<path d="M3514 2326 c1 -8 5 -18 8 -22 4 -3 5 1 4 10 -1 8 -5 18 -8 22 -4 3
-5 -1 -4 -10z"/>
<path d="M3570 2219 c0 -5 5 -7 10 -4 6 3 10 8 10 11 0 2 -4 4 -10 4 -5 0 -10
-5 -10 -11z"/>
<path d="M3515 2169 c-4 -6 -5 -12 -2 -15 2 -3 7 2 10 11 7 17 1 20 -8 4z"/>
<path d="M3535 2139 c-3 -4 2 -6 10 -5 21 3 28 13 10 13 -9 0 -18 -4 -20 -8z"/>
<path d="M3575 2000 c3 -5 8 -10 11 -10 2 0 4 5 4 10 0 6 -5 10 -11 10 -5 0
-7 -4 -4 -10z"/>
<path d="M3495 1980 c-3 -5 -1 -10 4 -10 6 0 11 5 11 10 0 6 -2 10 -4 10 -3 0
-8 -4 -11 -10z"/>
<path d="M3499 1908 c-5 -18 -6 -38 -1 -34 7 8 12 36 6 36 -2 0 -4 -1 -5 -2z"/>
<path d="M3555 1821 c-3 -5 -2 -12 3 -15 5 -3 9 1 9 9 0 17 -3 19 -12 6z"/>
<path d="M3495 1781 c-3 -5 -2 -12 3 -15 5 -3 9 1 9 9 0 17 -3 19 -12 6z"/>
<path d="M3513 1615 c0 -8 4 -12 9 -9 5 3 6 10 3 15 -9 13 -12 11 -12 -6z"/>
<path d="M3500 1565 c0 -2 6 -8 13 -14 10 -8 14 -7 14 2 0 8 -6 14 -14 14 -7
0 -13 -1 -13 -2z"/>
<path d="M3506 782 c-3 -5 1 -9 9 -9 8 0 12 4 9 9 -3 4 -7 8 -9 8 -2 0 -6 -4
-9 -8z"/>
<path d="M3386 602 c-3 -5 1 -9 9 -9 8 0 12 4 9 9 -3 4 -7 8 -9 8 -2 0 -6 -4
-9 -8z"/>
<path d="M597 244 c-4 -4 -17 -7 -29 -8 -24 -1 -33 -34 -14 -48 12 -8 26 -1
26 13 0 6 -5 7 -12 3 -6 -4 -8 -3 -4 4 3 5 0 13 -6 15 -7 3 2 4 20 2 23 -3 32
1 32 11 0 15 -3 17 -13 8z"/>
<path d="M618 219 c-6 -4 -15 -6 -19 -3 -4 2 -9 -6 -12 -18 -7 -24 10 -51 25
-42 15 10 50 -27 38 -41 -7 -9 -2 -11 21 -10 22 1 29 -2 25 -12 -4 -11 0 -13
15 -8 15 5 19 4 15 -4 -11 -18 2 -13 24 9 23 23 23 30 1 47 -24 19 -36 15 -18
-5 11 -12 13 -22 7 -32 -7 -11 -10 -12 -10 -2 0 7 -5 10 -10 7 -6 -3 -13 1
-16 10 -4 9 -10 13 -13 8 -3 -5 -14 -1 -23 9 -10 10 -13 18 -8 18 6 0 10 5 10
11 0 8 -6 7 -17 -2 -15 -11 -16 -11 -5 1 16 19 15 31 -3 24 -8 -4 -12 -11 -8
-17 3 -5 2 -7 -4 -4 -12 8 -10 41 2 44 6 0 9 -3 8 -8 -2 -5 0 -8 5 -8 18 3 33
-2 28 -9 -6 -11 22 -52 35 -52 6 0 3 10 -5 22 -9 12 -16 27 -16 33 0 5 5 3 11
-5 9 -12 10 -12 5 3 -3 10 -6 20 -6 23 0 2 -7 1 -15 -2 -8 -3 -17 0 -20 8 -6
16 -27 19 -47 7z m-8 -29 c0 -5 -5 -10 -11 -10 -5 0 -7 5 -4 10 3 6 8 10 11
10 2 0 4 -4 4 -10z"/>
<path d="M724 181 c4 -6 2 -11 -3 -11 -6 0 -11 -5 -11 -11 0 -5 4 -7 10 -4 11
7 62 -24 56 -34 -2 -3 10 -17 27 -31 22 -18 29 -20 25 -8 -9 22 13 40 32 28 8
-6 11 -10 7 -10 -4 0 -3 -9 3 -20 6 -11 15 -18 20 -15 5 3 11 1 14 -3 7 -12
46 -10 47 3 1 25 31 43 66 39 19 -2 33 0 29 3 -10 10 -80 11 -93 1 -7 -6 -15
-3 -22 9 -8 14 -10 15 -11 3 0 -13 -2 -13 -9 -1 -5 8 -18 16 -28 17 -33 5 -52
10 -59 16 -3 4 -12 4 -20 1 -8 -3 -21 3 -29 13 -8 11 -15 15 -15 11 0 -4 -10
-3 -21 4 -15 8 -19 8 -15 0z m50 -28 c4 -11 1 -11 -14 -3 -24 13 -25 17 -5 17
8 0 16 -6 19 -14z m56 -29 c0 -8 -4 -14 -10 -14 -5 0 -13 0 -17 0 -4 0 -8 6
-9 15 -1 8 2 13 7 9 5 -3 6 -10 3 -16 -4 -7 -2 -8 4 -4 6 4 8 14 5 23 -4 11
-3 14 5 9 7 -4 12 -14 12 -22z m64 -6 c-3 -4 0 -9 5 -9 26 -3 30 -4 37 -11 4
-4 14 -2 23 4 12 10 12 7 -2 -8 -9 -11 -14 -25 -10 -30 5 -5 -1 -1 -13 9 -27
22 -40 22 -23 0 12 -16 12 -17 -2 -6 -9 7 -20 9 -24 5 -5 -4 -5 -1 -1 6 4 7 2
12 -6 13 -11 0 -11 2 0 6 10 4 9 8 -3 17 -15 10 -14 12 4 12 11 0 17 -4 15 -8z"/>
<path d="M716 122 c-3 -5 1 -9 9 -9 8 0 12 4 9 9 -3 4 -7 8 -9 8 -2 0 -6 -4
-9 -8z"/>
<path d="M2710 120 c0 -5 5 -10 10 -10 6 0 10 5 10 10 0 6 -4 10 -10 10 -5 0
-10 -4 -10 -10z"/>
<path d="M1105 110 c-3 -6 1 -7 9 -4 18 7 21 14 7 14 -6 0 -13 -4 -16 -10z"/>
<path d="M2036 107 c3 -10 9 -15 12 -12 3 3 0 11 -7 18 -10 9 -11 8 -5 -6z"/>
<path d="M1066 98 c3 -5 10 -6 15 -3 13 9 11 12 -6 12 -8 0 -12 -4 -9 -9z"/>
<path d="M1990 100 c0 -5 7 -7 15 -4 11 5 14 1 9 -12 -5 -15 -4 -16 4 -4 6 8
8 18 6 22 -7 11 -34 10 -34 -2z"/>
<path d="M2124 95 c-4 -8 -11 -12 -17 -8 -6 4 -7 1 -2 -7 6 -10 11 -10 20 3 7
9 16 13 20 9 5 -4 5 -1 1 6 -9 16 -15 15 -22 -3z"/>
<path d="M2346 100 c6 -8 10 -23 9 -32 -2 -9 7 -25 18 -35 22 -18 22 -18 6 2
-9 11 -15 28 -14 37 2 9 -4 23 -13 30 -15 11 -15 11 -6 -2z"/>
<path d="M2440 95 c-7 -8 -16 -12 -21 -9 -5 3 -9 0 -9 -5 0 -17 15 -13 35 9
10 11 16 20 13 20 -3 0 -11 -7 -18 -15z"/>
<path d="M2795 100 c-3 -5 -1 -10 4 -10 6 0 11 5 11 10 0 6 -2 10 -4 10 -3 0
-8 -4 -11 -10z"/>
<path d="M2056 85 c-3 -8 -1 -15 4 -15 6 0 10 7 10 15 0 8 -2 15 -4 15 -2 0
-6 -7 -10 -15z"/>
<path d="M2294 86 c1 -8 5 -18 8 -22 4 -3 5 1 4 10 -1 8 -5 18 -8 22 -4 3 -5
-1 -4 -10z"/>
<path d="M1723 67 l-31 -23 20 -24 19 -25 -12 24 c-10 22 -9 27 17 48 38 30
27 30 -13 0z"/>
<path d="M1770 81 c0 -12 39 -25 47 -17 4 3 -1 6 -10 6 -9 0 -17 5 -17 10 0 6
-4 10 -10 10 -5 0 -10 -4 -10 -9z"/>
<path d="M1830 80 c0 -5 5 -10 10 -10 6 0 10 5 10 10 0 6 -4 10 -10 10 -5 0
-10 -4 -10 -10z"/>
<path d="M1899 81 c8 -5 20 -7 28 -4 8 3 13 0 11 -8 -2 -7 5 -15 15 -17 9 -2
17 1 17 7 0 6 -7 8 -15 4 -10 -3 -15 -1 -13 8 2 8 -8 14 -27 15 -20 2 -25 0
-16 -5z"/>
<path d="M2226 78 c3 -4 9 -8 15 -8 5 0 9 4 9 8 0 5 -7 9 -15 9 -8 0 -12 -4
-9 -9z"/>
<path d="M2135 71 c-3 -5 0 -13 6 -17 8 -5 9 -3 4 6 -6 10 -4 12 9 7 10 -4 15
-3 11 3 -8 13 -22 13 -30 1z"/>
<path d="M2553 67 c0 -8 6 -14 14 -14 9 0 10 4 2 14 -6 7 -12 13 -14 13 -1 0
-2 -6 -2 -13z"/>
<path d="M1859 63 c-1 -4 -1 -11 0 -15 2 -12 -17 -10 -22 2 -3 6 -4 5 -3 -2 2
-7 9 -13 17 -13 8 0 13 6 12 13 -2 6 6 12 17 12 11 0 19 -5 18 -12 -2 -6 5
-14 15 -16 9 -2 17 1 17 7 0 6 -7 8 -15 4 -10 -3 -15 0 -13 8 2 8 -7 15 -19
17 -13 2 -24 0 -24 -5z"/>
<path d="M2030 60 c0 -5 5 -10 11 -10 5 0 7 5 4 10 -3 6 -8 10 -11 10 -2 0 -4
-4 -4 -10z"/>
<path d="M2095 60 c5 -9 1 -10 -16 -6 -21 6 -22 6 -6 -5 13 -7 22 -8 29 -1 6
6 6 12 -3 17 -8 6 -10 4 -4 -5z"/>
<path d="M1750 50 c0 -5 5 -10 10 -10 6 0 10 5 10 10 0 6 -4 10 -10 10 -5 0
-10 -4 -10 -10z"/>
<path d="M1982 40 c0 -14 2 -19 5 -12 2 6 2 18 0 25 -3 6 -5 1 -5 -13z"/>
<path d="M2011 44 c0 -11 3 -14 6 -6 3 7 2 16 -1 19 -3 4 -6 -2 -5 -13z"/>
<path d="M2215 51 c-3 -6 -14 -8 -25 -6 -11 2 -20 -1 -20 -6 0 -6 6 -9 13 -6
6 2 19 1 27 -4 12 -5 16 -2 16 12 0 21 -2 23 -11 10z"/>
<path d="M1731 34 c0 -11 3 -14 6 -6 3 7 2 16 -1 19 -3 4 -6 -2 -5 -13z"/>
<path d="M1776 34 c-4 -9 -4 -19 -1 -22 2 -3 7 3 11 12 4 9 4 19 1 22 -2 3 -7
-3 -11 -12z"/>
<path d="M2430 39 c0 -5 5 -7 10 -4 6 3 10 8 10 11 0 2 -4 4 -10 4 -5 0 -10
-5 -10 -11z"/>
<path d="M2035 29 c-4 -6 -5 -12 -2 -15 2 -3 7 2 10 11 7 17 1 20 -8 4z"/>
<path d="M2312 31 c-11 -7 -11 -9 0 -14 9 -3 15 1 15 9 0 8 -1 14 -1 14 -1 0
-7 -4 -14 -9z"/>
<path d="M1814 19 c-3 -6 -3 -13 0 -16 3 -4 6 -1 6 5 0 6 7 9 15 6 8 -4 15 -4
15 -1 0 11 -30 16 -36 6z"/>
<path d="M1865 19 c-4 -6 -4 -13 -1 -16 3 -4 6 -1 6 6 0 7 5 9 10 6 6 -3 10
-1 10 4 0 14 -17 14 -25 0z"/>
<path d="M1935 21 c-3 -5 0 -13 6 -17 8 -5 9 -3 4 6 -6 10 -4 12 8 7 10 -3 17
-2 17 3 0 13 -27 13 -35 1z"/>
<path d="M1486 11 c-3 -3 13 -6 34 -6 21 0 36 2 34 5 -8 7 -64 9 -68 1z"/>
<path d="M1615 10 c3 -5 8 -10 11 -10 2 0 4 5 4 10 0 6 -5 10 -11 10 -5 0 -7
-4 -4 -10z"/>
</g>
</svg>
