<svg width="64" height="64" viewBox="0 0 64 64" fill="none" xmlns="http://www.w3.org/2000/svg">
<rect width="64" height="64" rx="8" fill="#115EFF"/>
<path d="M30.7774 49.5487C20.4102 49.5487 12.0059 41.1444 12.0059 30.7772C12.0059 20.4099 20.4102 12.0056 30.7774 12.0056C41.1446 12.0056 49.5489 20.4099 49.5489 30.7772L49.5489 43.0177L41.4588 36.8482C42.1315 35.4899 42.5096 33.9598 42.5096 32.3414C42.5096 26.7259 37.9573 22.1735 32.3417 22.1735L23.2799 22.1735L28.9586 27.8522C30.1713 27.1566 31.788 27.3633 32.8731 28.4484C34.1592 29.7345 34.2113 31.7675 32.9895 32.9893C31.7677 34.2111 29.7347 34.159 28.4486 32.8729C27.3635 31.7878 27.1568 30.171 27.8525 28.9584L22.1738 23.2797L22.1738 32.3414C22.1738 37.957 26.7261 42.5094 32.3417 42.5094C33.9602 42.5094 35.4904 42.1312 36.8488 41.4584L43.0184 49.5487L30.7774 49.5487Z" fill="white"/>
</svg>
