<svg width="68" height="68" viewBox="0 0 68 68" fill="none" xmlns="http://www.w3.org/2000/svg">
<path d="M34.2315 6.88005L19.269 0H49.1941L34.2315 6.88005Z" fill="black"/>
<path d="M0 34V6.51404L10.8976 30.2139L2.86526 47.6825C1.02281 43.4961 0 38.8675 0 34Z" fill="black"/>
<path d="M34 68C27.0354 68 20.56 65.906 15.1689 62.3132L34.2315 53.5478L53.0194 62.1869C47.591 65.8568 41.0458 68 34 68Z" fill="black"/>
<path d="M68 34C68 38.6667 67.0598 43.1137 65.3585 47.1622L57.5654 30.2139L68 7.52103V34Z" fill="black"/>
<path d="M48.0056 30.2139L59.7306 4.71484L34.2315 16.4398L8.73242 4.71484L20.4573 30.2139L8.73242 55.713L34.2315 43.988L59.7306 55.713L48.0056 30.2139Z" fill="black"/>
</svg>
