<svg width="160" height="183" viewBox="0 0 160 183" fill="none" xmlns="http://www.w3.org/2000/svg">
<path d="M102.424 156.891C95.309 158.966 87.7844 160.078 80 160.078C35.8172 160.078 0 124.243 0 80.039C0 35.8347 35.8172 0 80 0C124.183 0 160 35.8347 160 80.039C160 92.6731 157.074 104.623 151.863 115.249C150.122 118.799 145.573 119.641 142.43 117.243L123.226 102.591C120.688 100.654 119.933 97.2041 120.974 94.1849C122.503 89.7514 123.333 84.9922 123.333 80.039C123.333 56.095 103.932 36.6845 80 36.6845H36.6667V80.039C36.6667 103.983 56.0677 123.393 80 123.393C84.9508 123.393 89.7077 122.563 94.139 121.033C97.1568 119.991 100.605 120.746 102.541 123.286L137.379 165.419C138.745 166.981 138.368 169.399 136.591 170.471L116.612 182.52C114.842 183.587 112.538 182.803 111.786 180.877L102.424 156.891Z" fill="white"/>
</svg>
