<?xml version="1.0" standalone="no"?>
<!DOCTYPE svg PUBLIC "-//W3C//DTD SVG 20010904//EN"
 "http://www.w3.org/TR/2001/REC-SVG-20010904/DTD/svg10.dtd">
<svg version="1.0" xmlns="http://www.w3.org/2000/svg"
 width="512.000000pt" height="512.000000pt" viewBox="0 0 512.000000 512.000000"
 preserveAspectRatio="xMidYMid meet">
<metadata>
Created by potrace 1.14, written by Peter Selinger 2001-2017
</metadata>
<g transform="translate(0.000000,512.000000) scale(0.100000,-0.100000)"
fill="#000000" stroke="none">
<path d="M501 5105 c-177 -39 -346 -171 -429 -335 -77 -153 -72 5 -72 -2210 0
-2214 -5 -2054 72 -2209 81 -165 254 -299 433 -336 106 -22 4005 -22 4109 0
182 38 350 168 434 335 77 153 72 -5 72 2210 0 2214 5 2054 -72 2209 -81 165
-254 299 -433 336 -102 21 -4016 21 -4114 0z m2296 -580 c644 -84 1193 -479
1473 -1060 183 -379 234 -794 150 -1215 -35 -173 -133 -435 -182 -488 -31 -32
-93 -47 -139 -33 -45 14 -515 368 -546 413 -37 52 -37 91 -2 223 30 111 32
132 32 275 0 136 -3 167 -26 254 -98 367 -375 643 -746 744 l-96 26 -593 4
-593 3 3 -593 4 -593 26 -97 c97 -355 353 -624 694 -731 170 -54 385 -60 549
-16 147 39 154 40 198 28 23 -6 51 -18 62 -27 16 -14 619 -738 828 -995 51
-63 59 -100 30 -135 -19 -22 -467 -296 -511 -313 -39 -15 -77 6 -100 54 -10
23 -63 158 -118 300 -88 229 -101 257 -119 254 -11 -3 -78 -17 -150 -33 -120
-26 -147 -28 -355 -28 -236 -1 -291 5 -475 51 -211 52 -458 166 -635 291 -107
76 -284 242 -370 347 -626 766 -560 1885 151 2570 157 151 300 251 494 345
327 159 705 221 1062 175z"/>
</g>
</svg>
